<?xml version="1.0" encoding="UTF-8"?>
<svg width="530px" height="530px" viewBox="0 0 530 530" version="1.1" xmlns="http://www.w3.org/2000/svg" xmlns:xlink="http://www.w3.org/1999/xlink">
    <!-- Generator: Sketch 51.3 (57544) - http://www.bohemiancoding.com/sketch -->
    <title>signature_logo</title>
    <desc>Created with Sketch.</desc>
    <defs></defs>
    <g id="signature_logo" stroke="none" stroke-width="1" fill="none" fill-rule="evenodd">
        <path d="M47.7563173,334.648963 C51.5515404,329.18922 55.0647917,324.627075 58.2960712,320.96253 C59.9302513,319.109231 72.8402794,301.816166 108.72474,261.962959 C130.353968,237.941583 163.861479,204.181376 198.286274,165.030075 C219.678774,140.700397 269.340716,80.8953962 270.99397,79.0732659 C272.647224,77.2511356 273.972886,78.0941674 276.276545,79.0732659 C278.580204,80.0523645 279.964971,79.2361472 279.964971,82.8861103 C279.964971,86.5360734 277.989614,88.3776926 276.276545,90.7244909 C274.563477,93.0712891 265.604652,104.688009 262.144093,107.800336 C258.683534,110.912663 232.73144,150.836304 228.760717,159.304955 C226.935439,163.197858 130.659259,319.533599 180.718389,365.324408 C198.286274,381.394356 201.63797,385.356475 242.454582,390.656212 C258.11422,392.6895 283.395361,394.492441 306.262584,390.656212 C332.906597,386.186384 345.722525,382.08796 353.00293,380.06552 C367.27594,376.100586 390.96671,366.919899 391.538864,367.933299 C392.111018,368.946698 395.791378,369.797687 367.27594,380.06552 C338.760502,390.333352 326.224808,394.493462 308.859916,397.704315 C272.817314,404.368767 245.957276,401.742749 228.760717,399.948312 C190.538236,395.959851 156.816576,369.175519 155.250085,331.69274 C154.205758,306.704221 157.141602,287.060221 164.057617,272.760742 L212.905176,165.030075 L207.516129,167.773606 L55.3500195,342.559542 C49.5288039,348.380926 44.4643822,351.291619 40.1567543,351.291619 C35.8491264,351.291619 38.3823141,345.744067 47.7563173,334.648963 Z" id="A" stroke="#979797" fill="#D8D8D8"></path>
    </g>
</svg>