<?xml version="1.0" encoding="UTF-8"?>
<svg width="200px" height="200px" viewBox="0 0 530 530" version="1.1" xmlns="http://www.w3.org/2000/svg" xmlns:xlink="http://www.w3.org/1999/xlink">e_logo" stroke="none" stroke-width="1" fill="none" fill-rule="evenodd">
        <path d="M116.04621,265.84757 C116.04621,265.84757 160.635619,234.905189 189.198131,218.336082 C217.760642,201.766975 271.857728,175.342169 274.763676,173.7756 C277.669624,172.209031 283.082632,167.648619 285.235291,167.648619 C287.38795,167.648619 287.935942,166.306739 287.935942,170.305209 C287.935942,174.303679 286.018918,179.120807 285.235291,182.223673 C284.451663,185.32654 286.713359,177.545104 278.294245,196.916103 C269.875132,216.287102 264.503458,226.044216 259.936454,235.605873 C255.369451,245.16753 251.906871,251.936663 250.683354,254.723344 C249.459837,257.510025 249.081124,259.200937 249.081124,260.329962 C249.081124,261.458987 249.342555,262.553242 250.683354,262.553242 C252.024154,262.553242 251.715418,263.746223 254.215877,260.329962 C256.716336,256.913701 256.699824,255.255695 259.936454,251.867216 C263.173085,248.478737 267.613686,240.415067 269.610372,238.78576 C271.607057,237.156454 274.763676,230.896197 279.587941,225.661267 C284.412207,220.426337 318.566989,179.302892 323.835275,173.7756 C329.103562,168.248308 332.986832,161.572501 339.056952,163.268571 C345.127071,164.964641 342.950171,170.305209 335.204179,188.409342 C327.458187,206.513474 308.191635,250.967582 307.31795,253.316799 C306.444265,255.666016 308.314828,256.462452 314.523105,249.265401 C320.731381,242.068351 322.675856,237.796154 335.204179,222.746452 C347.732501,207.696749 347.720776,205.610203 361.563358,192.758089 C375.405939,179.905976 391.615878,169.529758 394.548213,167.648619 C397.480548,165.76748 400.179941,163.268571 404.888018,164.964641 C409.596095,166.660712 400.823371,199.477814 400.823371,206.28068 C400.823371,213.083546 386.524369,265.84757 422.869905,278.673735 C459.215441,291.4999 474.187166,279.340817 490.490665,269.039195 C506.794164,258.737573 515.000233,250.769639 513,254.723344 C511.666511,257.359147 502.07168,266.265636 484.215507,281.44281 C462.939429,297.231937 440.966449,300.177075 418.296567,290.278221 C384.291744,275.429941 386.991076,243.387843 386.991076,227.348534 C386.991076,211.309225 398.607686,179.874309 398.77982,178.392354 C398.951954,176.910399 397.52225,173.7756 392.94403,176.097671 C388.365811,178.419742 375.109576,190.391025 367.658863,196.916103 C360.20815,203.441181 328.721738,243.74899 320.731381,253.316799 C312.741024,262.884608 308.588385,268.595972 307.31795,270.392921 C306.047515,272.189871 306.047515,274.548978 304.244324,276.149192 C302.441132,277.749406 297.496531,281.483175 294.524517,272.437204 C291.552502,263.391233 294.275541,258.880379 296.838524,251.867216 C297.771224,249.315043 308.459724,228.823851 314.523105,216.452211 C319.567506,206.159682 327.479218,189.584454 327.792521,188.409342 C328.105824,187.234229 327.792521,182.223673 322.441013,186.754352 C317.089505,191.285032 294.736084,220.287348 285.235291,232.181454 C275.734497,244.075561 271.986513,249.554958 267.092302,256.04577 C262.198092,262.536583 260.026266,265.491474 257.443771,269.039195 C254.861275,272.586916 253.860251,274.754739 252.458403,276.149192 C251.056555,277.543645 250.408079,280.050368 247.758137,281.44281 C245.108194,282.835251 245.178005,283.507224 242.453983,282.114782 C239.729961,280.72234 237.215246,278.673735 237.215246,272.437204 C237.215246,266.200673 243.05787,245.550479 247.758137,235.605873 C252.458403,225.661267 272.420107,192.270953 273.261035,190.391025 C274.101964,188.511096 271.256539,186.754352 269.610372,186.754352 C267.964204,186.754352 239.41419,200.445231 210.383502,216.452211 C181.352814,232.459192 164.797489,243.872319 156.238661,249.265401 C147.679832,254.658484 143.593877,257.728425 140.749458,260.329962 C137.905039,262.931499 111.345058,275.639937 109.381478,276.149192 C107.417898,276.658447 113.765927,273.22714 111.918099,272.437204 C110.070271,271.647268 117.431141,270.426909 116.04621,269.039195 C114.661278,267.65148 116.04621,265.84757 116.04621,265.84757 Z" id="M" stroke="white" fill="white"></path>
    </g>
</svg>
